<?xml version="1.0" encoding="UTF-8" standalone="no"?>
<!DOCTYPE svg PUBLIC "-//W3C//DTD SVG 1.1//EN" "http://www.w3.org/Graphics/SVG/1.1/DTD/svg11.dtd">
<svg width="100%" height="100%" viewBox="0 0 32 32" version="1.1" xmlns="http://www.w3.org/2000/svg" xmlns:xlink="http://www.w3.org/1999/xlink" xml:space="preserve" xmlns:serif="http://www.serif.com/" style="fill-rule:evenodd;clip-rule:evenodd;">
    <g id="Bull">
        <path id="path3777" d="M1.283,7.374c-0.466,0.007 -0.906,0.12 -1.123,0.276c0,0 1.298,0.022 1.512,0.579c0.214,0.558 -0.3,2.266 1.465,2.266c0,-0 -0.356,0.17 -0.521,0.594c0,0 0.709,0.283 1.392,0c-0,0 -0.04,0.76 0.726,1.493c0.767,0.733 1.17,1.666 0.867,2.798l1.263,-0c-0.116,-0.433 -0.126,-0.838 -0.054,-1.213c-0,0 0.588,-0.132 0.621,0.334c0.034,0.467 -0.465,2.098 -0.066,3.098c0,-0 -1.496,0.328 -2.627,0.517c0,-0 -2.625,2.549 -3.291,3.882l0.932,-0.202c-0.087,0.266 -0.127,0.602 -0.097,0.901c0,0 0.646,-0.289 1.131,-0.532c0.466,-0.233 0.365,-0.799 0.365,-1.232c0,-0.433 0.47,-0.536 0.603,-0.136l1.399,-1.962l1.997,-0c0.833,-0 1.131,-0.203 1.131,-0.203c0,0 0.405,0.577 1.337,0.91c0,-0 -0.579,-0.974 -0.579,-2.009c-0,-0 0.365,1.368 1.597,2.001c0,-0.1 -0.37,-1.007 -0.37,-2.332c0,0 1.171,1.272 1.171,2.429c-0,1.157 -0.767,2.268 -1.333,3c-0.567,0.733 -0.7,1.566 -0.7,1.566l0.832,-0.466l-0.031,0.898c-0,-0 1.165,-0.601 1.232,-1.034c0.066,-0.433 -0.095,-0.876 0.031,-1.065c0.126,-0.188 0.502,-0.131 0.602,0.268c0,0 0.398,-1.033 0.432,-2.899c0.033,-1.865 -0,-2.366 -0,-2.366c-0,-0 3.58,0.432 6.019,-0.222c0,0 -0.424,0.481 -0.587,0.871c0,-0 1.284,-0.772 2.717,-0.972c-0,0 -0.167,1.568 -1.8,2.468c-1.632,0.899 -2.129,1.299 -2.428,1.632c-0.3,0.333 -1.299,2.162 -1.633,2.895l0.933,-0.33l0,0.731c0,-0 0.901,-0.543 1.03,-1.1c0.129,-0.558 -0.13,-0.897 0.136,-1.197c0.266,-0.3 0.532,0.334 0.532,0.334c0,0 0.509,-1.615 2.911,-2.557c2.403,-0.942 3.249,-0.944 3.249,-0.944c-0,-0 -1.13,-0.846 -0.424,-1.411c0.707,-0.565 2.308,-0.285 3.109,0.657c0.801,0.942 1.272,1.837 0.754,2.732c-0.518,0.895 -1.32,0.754 -1.461,2.638l0.801,-0.656l-0,1.033c-0,0 1.225,-0.707 1.13,-1.508c-0.094,-0.8 0.189,-0.8 0.377,-0.8c0.189,-0 0.331,0.423 0.331,0.423c-0,0 0.47,-2.4 0.093,-4.472c-0,-0 -1.129,0.235 -1.317,-1.178c-0.06,-0.444 -0.018,-1.093 0.07,-1.772c0.598,-0.082 1.179,-0.22 1.69,-0.416c1.999,-0.766 2.568,-1.697 2.468,-2.53c-0.1,-0.833 -1.269,-1.387 -2.511,-1.387l-5.891,-0c0.273,-0.644 0.583,-1.244 0.684,-1.834c0.2,-1.166 -1.833,-1.499 -3.665,-0.933c-1.832,0.566 -3.163,0.101 -3.163,0.101c-0,-0 0.52,1.02 2.452,0.754c-0,-0 -1.084,0.501 -2.464,-0.004c0,-0 0.524,0.961 2.499,0.773c-0,0 -1.064,0.359 -2.499,0c0.09,0.301 1.161,1.213 3.163,0.564c1.995,-0.647 2.6,-0.364 2.666,-0.097c0.043,0.168 -0.075,0.322 -0.252,0.676l-13.516,-0c1.765,-0 1.25,-1.708 1.465,-2.266c0.214,-0.557 1.508,-0.579 1.508,-0.579c-0.434,-0.311 -1.765,-0.465 -2.398,0.101c-0.633,0.567 -0.333,1.267 -0.933,1.566c-0.599,0.3 -1.282,0.012 -1.282,0.012c0.093,-0.191 0.562,-0.452 0.21,-0.684c-0.353,-0.232 -0.435,0.259 -0.541,0.4c-0.106,0.142 -0.401,0.144 -0.33,-0.233c0.074,-0.394 -0.591,-0.474 -0.544,-0.074c0.047,0.401 -0.129,0.393 -0.253,0.393c-0.123,-0 -0.303,0.008 -0.256,-0.393c0.047,-0.4 -0.614,-0.32 -0.54,0.074c0.07,0.377 -0.225,0.375 -0.331,0.233c-0.106,-0.141 -0.191,-0.632 -0.544,-0.4c-0.352,0.232 0.121,0.493 0.214,0.684c0,0 -0.687,0.288 -1.286,-0.012c-0.6,-0.299 -0.3,-0.999 -0.933,-1.566c-0.316,-0.283 -0.808,-0.384 -1.275,-0.377l0,0Zm28.354,4.162c0.721,-0.018 1.295,0.136 1.325,0.645c0.044,0.74 -1.328,1.771 -3.202,2.06c0.204,-1.294 0.501,-2.526 0.501,-2.526c0.455,-0.097 0.943,-0.168 1.376,-0.179Z" style="fill:#d71920;fill-rule:nonzero;stroke:#000;stroke-width:0.12px;"/>
        <g id="g3773">
            <path id="path3769" d="M4.424,11.143c-0,-0 0.942,-0.095 1.271,0.848c-1.224,0.211 -1.271,-0.848 -1.271,-0.848Z" style="fill:#e7e7e8;fill-rule:nonzero;stroke:#000;stroke-width:0.12px;"/>
            <path id="path3771" d="M5.224,11.602c0,0.097 -0.079,0.177 -0.176,0.177c-0.098,-0 -0.177,-0.08 -0.177,-0.177c0,-0.098 0.079,-0.177 0.177,-0.177c0.097,0 0.176,0.079 0.176,0.177Z" style="fill-rule:nonzero;"/>
        </g>
        <g id="g3781">
            <path id="path3783" d="M8.043,11.143c0,-0 -0.942,-0.095 -1.272,0.848c1.225,0.211 1.272,-0.848 1.272,-0.848Z" style="fill:#e7e7e8;fill-rule:nonzero;stroke:#000;stroke-width:0.12px;"/>
            <path id="path3785" d="M7.243,11.602c-0,0.097 0.079,0.177 0.176,0.177c0.098,-0 0.177,-0.08 0.177,-0.177c-0,-0.098 -0.079,-0.177 -0.177,-0.177c-0.097,0 -0.176,0.079 -0.176,0.177Z" style="fill-rule:nonzero;"/>
        </g>
        <path id="path3805" d="M27.76,14.241c-0.19,0.03 -0.383,0.053 -0.583,0.066c-2.167,0.142 -4.164,-0.24 -4.22,-1.76c-0.028,-0.751 0.203,-1.424 0.47,-2.052m-0.579,-0c-0.103,0.205 -0.224,0.476 -0.346,0.855c-0.333,1.032 -0.335,2.099 0.731,2.899c0.793,0.595 2.693,0.818 4.438,0.579m-18.763,3.804c0,0 -0.967,-1.138 -0.402,-3.069c0.566,-1.932 0.284,-3.816 -0.047,-4.475c0.684,0.282 1.39,-0 1.39,-0c-0.165,-0.424 -0.518,-0.593 -0.518,-0.593c0,-0 -0.777,-0.001 -1.31,-0.001c-0.533,0 -1.565,0.5 -1.788,1.433c-0.222,-0.933 -1.254,-1.433 -1.787,-1.433l-1.369,0m3.156,1.377l0,3.464m3.433,2.198c-0,-0 -0.101,-1.487 0.365,-3.219c0.467,-1.732 -0.182,-3.226 -0.182,-3.226m1.044,6.114c0,0 -0.062,-0.823 0.237,-2.388c0.3,-1.566 0.2,-3.431 -0.366,-4.331" style="fill:none;fill-rule:nonzero;stroke:#000;stroke-width:0.12px;"/>
        <path id="path3807" d="M19.723,8.525l0.024,0.12l0.419,-0.148l-0.443,0.028Zm0.035,0.765l0.02,0.121l0.577,-0.16l-0.597,0.039Z" style="fill-rule:nonzero;"/>
    </g>
</svg>
