<svg xmlns="http://www.w3.org/2000/svg" viewBox="0 0 32 32"><path fill="#D71920" stroke="#161718" stroke-width=".12" d="M1.283 7.374c-.466.007-.906.12-1.123.276 0 0 1.298.022 1.512.579.214.558-.3 2.266 1.465 2.266 0 0-.356.17-.521.594 0 0 .709.283 1.392 0 0 0-.04.76.726 1.493.767.733 1.17 1.666.867 2.798h1.263a2.7 2.7 0 0 1-.054-1.213s.588-.132.621.334c.034.467-.465 2.098-.066 3.098 0 0-1.496.328-2.627.517 0 0-2.625 2.549-3.291 3.882l.932-.202a2.3 2.3 0 0 0-.097.901s.646-.289 1.131-.532c.466-.233.365-.799.365-1.232s.47-.536.603-.136l1.399-1.962h1.997c.833 0 1.131-.203 1.131-.203s.405.577 1.337.91c0 0-.579-.974-.579-2.009 0 0 .365 1.368 1.597 2.001 0-.1-.37-1.007-.37-2.332 0 0 1.171 1.272 1.171 2.429s-.767 2.268-1.333 3a3.85 3.85 0 0 0-.7 1.566l.832-.466-.031.898s1.165-.601 1.232-1.034-.095-.876.031-1.065.502-.131.602.268c0 0 .398-1.033.432-2.899.033-1.865 0-2.366 0-2.366s3.58.432 6.019-.222c0 0-.424.481-.587.871 0 0 1.284-.772 2.717-.972 0 0-.167 1.568-1.8 2.468-1.632.899-2.129 1.299-2.428 1.632-.3.333-1.299 2.162-1.633 2.895l.933-.33v.731s.901-.543 1.03-1.1c.129-.558-.13-.897.136-1.197s.532.334.532.334.509-1.615 2.911-2.557 3.249-.944 3.249-.944-1.13-.846-.424-1.411c.707-.565 2.308-.285 3.109.657s1.272 1.837.754 2.732-1.32.754-1.461 2.638l.801-.656v1.033s1.225-.707 1.13-1.508c-.094-.8.189-.8.377-.8.189 0 .331.423.331.423s.47-2.4.093-4.472c0 0-1.129.235-1.317-1.178-.06-.444-.018-1.093.07-1.772a7.7 7.7 0 0 0 1.69-.416c1.999-.766 2.568-1.697 2.468-2.53s-1.269-1.387-2.511-1.387h-5.891c.273-.644.583-1.244.684-1.834.2-1.166-1.833-1.499-3.665-.933s-3.163.101-3.163.101.52 1.02 2.452.754c0 0-1.084.501-2.464-.004 0 0 .524.961 2.499.773 0 0-1.064.359-2.499 0 .09.301 1.161 1.213 3.163.564 1.995-.647 2.6-.364 2.666-.097.043.168-.075.322-.252.676H9.332c1.765 0 1.25-1.708 1.465-2.266.214-.557 1.508-.579 1.508-.579-.434-.311-1.765-.465-2.398.101s-.333 1.267-.933 1.566c-.599.3-1.282.012-1.282.012.093-.191.562-.452.21-.684s-.435.259-.541.4-.401.144-.33-.233c.074-.394-.591-.474-.544-.074.047.401-.129.393-.253.393-.123 0-.303.008-.256-.393.047-.4-.614-.32-.54.074.07.377-.225.375-.331.233-.106-.141-.191-.632-.544-.4-.352.232.121.493.214.684 0 0-.687.288-1.286-.012-.6-.299-.3-.999-.933-1.566-.316-.283-.808-.384-1.275-.377Zm28.354 4.162c.721-.018 1.295.136 1.325.645.044.74-1.328 1.771-3.202 2.06.204-1.294.501-2.526.501-2.526a8 8 0 0 1 1.376-.179Z"/><path fill="#E7E7E8" stroke="#161718" stroke-width=".12" d="M4.424 11.143s.942-.095 1.271.848c-1.224.211-1.271-.848-1.271-.848Z"/><path d="M5.224 11.602a.177.177 0 0 1-.176.177.177.177 0 0 1 0-.354c.097 0 .176.079.176.177"/><path fill="#E7E7E8" stroke="#161718" stroke-width=".12" d="M8.043 11.143s-.942-.095-1.272.848c1.225.211 1.272-.848 1.272-.848Z"/><path d="M7.243 11.602c0 .097.079.177.176.177a.177.177 0 0 0 0-.354.176.176 0 0 0-.176.177"/><path fill="none" stroke="#161718" stroke-width=".12" d="M27.76 14.241q-.284.046-.583.066c-2.167.142-4.164-.24-4.22-1.76-.028-.751.203-1.424.47-2.052m-.579 0a6 6 0 0 0-.346.855c-.333 1.032-.335 2.099.731 2.899.793.595 2.693.818 4.438.579M8.908 18.632s-.967-1.138-.402-3.069c.566-1.932.284-3.816-.047-4.475.684.282 1.39 0 1.39 0-.165-.424-.518-.593-.518-.593l-1.31-.001c-.533 0-1.565.5-1.788 1.433-.222-.933-1.254-1.433-1.787-1.433H3.077m3.156 1.377v3.464m3.433 2.198s-.101-1.487.365-3.219c.467-1.732-.182-3.226-.182-3.226m1.044 6.114s-.062-.823.237-2.388c.3-1.566.2-3.431-.366-4.331"/><path d="m19.723 8.525.024.12.419-.148zm.035.765.02.121.577-.16z"/></svg>