<svg class="bubba-crown" width="100%" height="100%" viewBox="0 0 8 6.5" xmlns="http://www.w3.org/2000/svg">
    <path d="M5.855,3.199c0.024,-0.016 0.048,-0.032 0.071,-0.047c0.024,-0.016 0.044,-0.036 0.06,-0.06c0.246,-0.262 0.497,-0.516 0.751,-0.763c0.254,-0.246 0.492,-0.512 0.715,-0.798c0.039,-0.056 0.095,-0.103 0.167,-0.143c0.039,-0.032 0.087,-0.048 0.143,-0.048c0.055,0 0.105,0.02 0.149,0.06c0.043,0.04 0.073,0.091 0.089,0.155c0.008,0.032 0.01,0.061 0.006,0.089c-0.004,0.028 -0.006,0.058 -0.006,0.089c-0,0.143 -0.002,0.284 -0.006,0.424c-0.004,0.139 -0.01,0.28 -0.018,0.423c-0.016,0.158 -0.024,0.321 -0.024,0.488c0,0.167 -0.004,0.334 -0.012,0.501c-0.016,0.54 -0.016,1.084 0,1.632c0,0.199 -0.091,0.33 -0.274,0.393c-0.461,0.175 -0.949,0.298 -1.465,0.37l-1.359,0.179c-0.278,0.039 -0.554,0.075 -0.828,0.107c-0.274,0.032 -0.55,0.063 -0.828,0.095c-0.231,0.032 -0.453,0.058 -0.668,0.078c-0.214,0.019 -0.433,0.033 -0.655,0.041c-0.167,0.016 -0.332,0.022 -0.495,0.018c-0.162,-0.004 -0.331,-0.006 -0.506,-0.006c-0.064,0.008 -0.125,0.014 -0.185,0.018c-0.059,0.004 -0.121,0.006 -0.184,0.006c-0.151,-0 -0.239,-0.071 -0.263,-0.214l0,-0.084c0.04,-0.326 0.04,-0.643 0,-0.953c-0.039,-0.31 -0.079,-0.624 -0.119,-0.942c-0.008,-0.039 -0.014,-0.083 -0.018,-0.131c-0.004,-0.047 -0.009,-0.091 -0.017,-0.131c-0,-0.095 -0.002,-0.192 -0.006,-0.292c-0.004,-0.099 -0.01,-0.196 -0.018,-0.292l-0.036,-1.179c-0.008,-0.096 -0.012,-0.193 -0.012,-0.292c0,-0.1 -0.004,-0.197 -0.012,-0.292l0,-0.137c0,-0.044 0.008,-0.086 0.024,-0.125c0.016,-0.048 0.036,-0.094 0.06,-0.137c0.023,-0.044 0.055,-0.082 0.095,-0.114c0.103,-0.103 0.206,-0.111 0.31,-0.024c0.103,0.088 0.214,0.195 0.333,0.322c0.239,0.278 0.477,0.554 0.715,0.828c0.239,0.274 0.485,0.551 0.739,0.829c0.08,0.087 0.163,0.172 0.25,0.256c0.088,0.083 0.175,0.165 0.263,0.244c0.047,0.04 0.097,0.078 0.149,0.113c0.051,0.036 0.109,0.078 0.172,0.125c0.024,-0.039 0.044,-0.071 0.06,-0.095c0.016,-0.024 0.028,-0.052 0.036,-0.083c0.111,-0.342 0.238,-0.674 0.381,-0.995c0.143,-0.322 0.302,-0.638 0.477,-0.948c0.087,-0.159 0.166,-0.317 0.238,-0.476c0.071,-0.159 0.147,-0.318 0.226,-0.477c0.048,-0.095 0.098,-0.191 0.149,-0.286c0.052,-0.095 0.106,-0.191 0.161,-0.286c0.04,-0.064 0.082,-0.121 0.125,-0.173c0.044,-0.051 0.11,-0.069 0.197,-0.053c0.079,0.008 0.147,0.063 0.202,0.166c0.056,0.104 0.104,0.221 0.143,0.352c0.04,0.131 0.072,0.26 0.096,0.387c0.024,0.127 0.036,0.219 0.036,0.274c0.031,0.326 0.061,0.648 0.089,0.966c0.028,0.317 0.054,0.639 0.077,0.965c0,0.016 0.006,0.028 0.018,0.036c0.012,0.007 0.026,0.023 0.042,0.047Zm-4.54,2.574c0.175,-0.008 0.345,-0.016 0.512,-0.024c0.167,-0.008 0.33,-0.016 0.489,-0.024c0.063,-0.008 0.125,-0.011 0.185,-0.011c0.059,-0 0.121,-0.008 0.184,-0.024c0.175,-0.024 0.342,-0.05 0.501,-0.078c0.159,-0.028 0.321,-0.049 0.488,-0.065c0.064,-0.008 0.121,-0.014 0.173,-0.018c0.052,-0.004 0.109,-0.01 0.173,-0.018l0.679,-0.083c0.056,-0.008 0.111,-0.014 0.167,-0.018c0.056,-0.004 0.111,-0.01 0.167,-0.018c0.318,-0.032 0.633,-0.064 0.947,-0.096c0.314,-0.031 0.63,-0.067 0.947,-0.107c0.016,0 0.028,-0.002 0.036,-0.006c0.008,-0.004 0.016,-0.006 0.024,-0.006l0.131,-0.024c0.016,0 0.026,-0.002 0.03,-0.006c0.004,-0.003 0.014,-0.005 0.03,-0.005c0.008,-0.04 0.016,-0.076 0.024,-0.108c0.007,-0.031 0.015,-0.067 0.023,-0.107c0.016,-0.326 0.02,-0.647 0.012,-0.965c-0.008,-0.318 0.012,-0.64 0.06,-0.965c-0,-0.016 -0.004,-0.028 -0.012,-0.036c-0.008,-0.008 -0.016,-0.024 -0.024,-0.048c-0.024,0.032 -0.048,0.058 -0.071,0.078c-0.024,0.02 -0.044,0.041 -0.06,0.065c-0.095,0.135 -0.191,0.27 -0.286,0.405c-0.095,0.135 -0.187,0.27 -0.274,0.405c-0.143,0.207 -0.312,0.336 -0.506,0.388c-0.195,0.051 -0.408,0.077 -0.638,0.077c-0.135,0 -0.215,-0.071 -0.238,-0.214c-0.016,-0.064 -0.024,-0.115 -0.024,-0.155c-0.032,-0.286 -0.058,-0.574 -0.078,-0.864c-0.019,-0.29 -0.045,-0.582 -0.077,-0.876c-0.008,-0.048 -0.016,-0.095 -0.024,-0.143c-0.008,-0.048 -0.02,-0.099 -0.036,-0.155c-0.055,0.024 -0.083,0.04 -0.083,0.048c-0.087,0.159 -0.175,0.312 -0.262,0.459c-0.088,0.147 -0.175,0.299 -0.262,0.458c-0.032,0.064 -0.062,0.123 -0.09,0.179c-0.028,0.056 -0.061,0.115 -0.101,0.179l-0.358,0.703c-0.158,0.302 -0.329,0.596 -0.512,0.882c-0.071,0.111 -0.163,0.167 -0.274,0.167c-0.048,-0 -0.111,-0.02 -0.191,-0.06c-0.103,-0.048 -0.214,-0.127 -0.333,-0.238c-0.215,-0.231 -0.423,-0.463 -0.626,-0.697c-0.203,-0.235 -0.387,-0.483 -0.554,-0.745c-0.04,-0.064 -0.081,-0.121 -0.125,-0.173c-0.044,-0.052 -0.09,-0.105 -0.137,-0.161c-0.016,-0.016 -0.034,-0.028 -0.054,-0.036c-0.02,-0.008 -0.046,-0.02 -0.077,-0.035c0.016,0.46 0.059,0.907 0.131,1.34c0.071,0.433 0.135,0.864 0.19,1.293c0.008,0.056 0.02,0.107 0.036,0.155c0.016,0.048 0.032,0.091 0.048,0.131Z" style="fill-rule:nonzero;"/>
</svg>